<?xml version="1.0" standalone="no"?><!DOCTYPE svg PUBLIC "-//W3C//DTD SVG 1.1//EN" "http://www.w3.org/Graphics/SVG/1.1/DTD/svg11.dtd"><svg t="1662791583709" class="icon" viewBox="0 0 1024 1024" version="1.1" xmlns="http://www.w3.org/2000/svg" p-id="9598" width="128" height="128" xmlns:xlink="http://www.w3.org/1999/xlink"><path d="M512 42.666667C253.866667 42.666667 42.666667 253.866667 42.666667 512s211.2 469.333333 469.333333 469.333333 469.333333-211.2 469.333333-469.333333S770.133333 42.666667 512 42.666667z m226.133333 311.466666l-104.533333 251.733334c-4.266667 12.8-14.933333 21.333333-27.733333 27.733333l-251.733334 104.533333c-42.666667 17.066667-85.333333-25.6-66.133333-66.133333l104.533333-251.733333c4.266667-12.8 14.933333-21.333333 27.733334-27.733334l251.733333-104.533333c40.533333-19.2 83.2 23.466667 66.133333 66.133333z" fill="#80B8F8" p-id="9599"></path><path d="M512 576c-36.266667 0-64-27.733333-64-64s27.733333-64 64-64 64 27.733333 64 64-27.733333 64-64 64z" fill="#80B8F8" p-id="9600"></path></svg>